<svg width="161" height="57" viewBox="0 0 161 57" fill="none" xmlns="http://www.w3.org/2000/svg">
<path d="M33.6958 1.28613H15.8008C11.3751 1.28613 7.37658 3.1272 4.53533 6.08352C1.83127 8.89379 0.169434 12.7109 0.169434 16.9175C0.169434 20.0995 1.12094 23.058 2.75621 25.5275C3.67675 26.9216 4.81635 28.1586 6.12413 29.1942C8.78614 31.2941 12.1474 32.5488 15.803 32.5488C19.4585 32.5488 22.6162 31.3694 25.2384 29.38C26.5683 28.3754 27.7301 27.1584 28.6793 25.7842C30.4186 23.2638 31.4365 20.2101 31.4365 16.9175C31.4365 12.7109 29.7747 8.89158 27.0706 6.08352H33.698V1.28613H33.6958ZM25.307 22.122C24.5237 23.5471 23.4328 24.7774 22.1183 25.72C20.3392 26.9991 18.1574 27.7536 15.8008 27.7536C13.4441 27.7536 11.1207 26.9504 9.31057 25.5961C8.01829 24.6269 6.94951 23.3767 6.19494 21.9361C5.40939 20.4358 4.96681 18.7298 4.96681 16.9197C4.96681 10.9362 9.81731 6.08573 15.8008 6.08573C21.7842 6.08573 26.6347 10.9362 26.6347 16.9197C26.6347 18.805 26.1523 20.5797 25.307 22.122Z" fill="white"/>
<path d="M31.2626 34.395C31.2626 42.2129 25.5248 48.6898 18.03 49.8427V56.2908H13.2326V49.8427C5.73782 48.6898 0 42.2129 0 34.395H4.79737C4.79737 39.5531 8.40426 43.8725 13.2348 44.9634V38.8671H18.0322V44.9634C22.8628 43.8725 26.4696 39.5553 26.4696 34.395H31.267H31.2626Z" fill="white"/>
<path d="M56.9773 15.0444C59.1458 16.3566 60.832 18.1755 62.0292 20.4967C63.2285 22.818 63.8282 25.4645 63.8282 28.4319C63.8282 29.0404 63.6379 29.5272 63.2573 29.8879C62.8767 30.2508 62.381 30.4301 61.7725 30.4301H38.7061C39.0092 33.5523 40.2285 36.0816 42.3594 38.0244C44.4904 39.9651 47.1546 40.9365 50.3521 40.9365C51.7219 40.9365 53.1004 40.6997 54.4923 40.2218C55.8819 39.746 56.995 39.1463 57.8315 38.4228C58.3249 38.0421 58.8405 37.8518 59.3738 37.8518C59.792 37.8518 60.2102 38.0045 60.6307 38.3077C61.1241 38.7635 61.372 39.2791 61.372 39.85C61.372 40.3457 61.1617 40.7838 60.7435 41.1622C59.4866 42.2288 57.889 43.1139 55.9483 43.8176C54.0077 44.5213 52.1423 44.8731 50.3521 44.8731C47.3073 44.8731 44.5855 44.1982 42.1868 42.8462C39.7881 41.4963 37.9139 39.611 36.5641 37.1946C35.212 34.7782 34.5371 32.0476 34.5371 29.0006C34.5371 25.9535 35.1744 23.1676 36.449 20.7512C37.7236 18.3348 39.4938 16.4495 41.7597 15.0997C44.0235 13.7499 46.6036 13.0728 49.4958 13.0728C52.3879 13.0728 54.8065 13.73 56.9751 15.0422L56.9773 15.0444ZM42.3041 19.6979C40.4011 21.4881 39.2394 23.8469 38.8211 26.7767H59.7168C59.4114 23.8469 58.347 21.4859 56.5192 19.6979C54.6915 17.91 52.3525 17.0138 49.4958 17.0138C46.639 17.0138 44.2049 17.9078 42.3019 19.6979H42.3041Z" fill="white"/>
<path d="M90.4617 14.7313C92.6125 15.8731 94.2965 17.5393 95.5135 19.7278C96.7306 21.9163 97.3413 24.534 97.3413 27.5789V42.4224C97.3413 43.031 97.1311 43.5465 96.7129 43.9648C96.2947 44.3852 95.7791 44.5932 95.1706 44.5932C94.5222 44.5932 93.9911 44.3852 93.5729 43.9648C93.1547 43.5465 92.9445 43.0332 92.9445 42.4224V27.5789C92.9445 24.1911 92.0018 21.6131 90.1187 19.8429C88.2356 18.0726 85.7705 17.1875 82.7257 17.1875C80.8603 17.1875 79.1763 17.5504 77.6738 18.2718C76.1691 18.9954 74.9808 19.9933 74.1046 21.2701C73.2283 22.5447 72.7924 23.9631 72.7924 25.5232V42.4224C72.7924 43.0708 72.5932 43.593 72.1927 43.9935C71.7922 44.3941 71.2699 44.5932 70.6216 44.5932C69.9732 44.5932 69.4422 44.3941 69.0239 43.9935C68.6057 43.593 68.3955 43.0708 68.3955 42.4224V15.5876C68.3955 14.9415 68.6035 14.4082 69.0239 13.99C69.4444 13.5718 69.9754 13.3615 70.6216 13.3615C71.2677 13.3615 71.7922 13.5718 72.1927 13.99C72.5932 14.4082 72.7924 14.9415 72.7924 15.5876V17.5283C74.0492 16.1209 75.5694 15.0167 77.3596 14.2179C79.1475 13.4191 81.0904 13.0186 83.1837 13.0186C85.8856 13.0186 88.313 13.5895 90.4639 14.7313H90.4617Z" fill="white"/>
<path d="M134.28 15.5295V28.9458C134.28 31.9154 133.585 34.6172 132.195 37.0535C130.806 39.4898 128.903 41.4017 126.486 42.7913C124.068 44.181 121.377 44.8758 118.407 44.8758C115.438 44.8758 112.745 44.181 110.328 42.7913C107.91 41.4017 106.009 39.4898 104.619 37.0535C103.23 34.6172 102.535 31.9154 102.535 28.9458C102.535 25.9762 103.21 23.2854 104.562 20.8668C105.911 18.4504 107.759 16.5474 110.1 15.1578C112.441 13.7681 115.057 13.0733 117.951 13.0733C120.425 13.0733 122.691 13.5977 124.745 14.6444C126.8 15.691 128.493 17.1272 129.825 18.9549V2.22609C129.825 1.57995 130.033 1.04666 130.454 0.628438C130.872 0.210217 131.405 0 132.051 0C132.698 0 133.222 0.210217 133.622 0.628438C134.023 1.04666 134.222 1.57995 134.222 2.22609V15.0161C134.26 15.1312 134.28 15.3016 134.28 15.5295ZM124.289 39.3084C126.039 38.2617 127.42 36.8345 128.429 35.0266C129.438 33.2187 129.943 31.1918 129.943 28.9458C129.943 28.2996 129.923 27.8239 129.885 27.5185C129.847 27.4433 129.828 27.3481 129.828 27.2331C129.447 24.2635 128.201 21.8294 126.088 19.9242C123.975 18.0211 121.414 17.0696 118.409 17.0696C116.241 17.0696 114.269 17.583 112.501 18.612C110.731 19.6387 109.341 21.0571 108.334 22.865C107.325 24.6728 106.821 26.6998 106.821 28.9458C106.821 31.1918 107.325 33.2187 108.334 35.0266C109.344 36.8345 110.733 38.2617 112.501 39.3084C114.271 40.355 116.241 40.8795 118.409 40.8795C120.578 40.8795 122.539 40.3573 124.291 39.3084H124.289Z" fill="white"/>
<path d="M159.602 13.6453C160.533 14.0635 161 14.6543 161 15.4156C161 15.6435 160.98 15.8161 160.943 15.9289C160.79 16.4622 160.551 16.8229 160.228 17.0132C159.905 17.2035 159.458 17.2987 158.887 17.2987C158.544 17.2987 157.953 17.261 157.117 17.1836C156.811 17.146 156.355 17.1261 155.747 17.1261C152.892 17.1261 150.56 17.8873 148.752 19.4097C146.944 20.9321 146.039 22.9126 146.039 25.3467V42.4185C146.039 43.1045 145.849 43.6378 145.468 44.0162C145.088 44.3946 144.554 44.5871 143.871 44.5871C143.187 44.5871 142.651 44.3968 142.273 44.0162C141.892 43.6356 141.702 43.1023 141.702 42.4185V15.5262C141.702 14.8402 141.892 14.3091 142.273 13.9285C142.654 13.5479 143.187 13.3576 143.871 13.3576C144.554 13.3576 145.088 13.5479 145.468 13.9285C145.849 14.3091 146.039 14.8424 146.039 15.5262V18.0377C147.143 16.4401 148.551 15.2031 150.264 14.3268C151.976 13.4506 153.822 13.0146 155.802 13.0146C157.4 13.0146 158.666 13.2249 159.599 13.6431L159.602 13.6453Z" fill="white"/>
</svg>
