<svg width="110" height="39" viewBox="0 0 110 39" fill="none" xmlns="http://www.w3.org/2000/svg">
<path d="M23.0301 1.14648H10.803C7.77907 1.14648 5.04698 2.40443 3.10564 4.42439C1.25804 6.34456 0.122559 8.95267 0.122559 11.8269C0.122559 14.0011 0.772697 16.0225 1.89003 17.7099C2.519 18.6624 3.29766 19.5076 4.19122 20.2152C6.01009 21.65 8.30674 22.5073 10.8045 22.5073C13.3022 22.5073 15.4598 21.7014 17.2514 20.3422C18.1601 19.6558 18.9539 18.8242 19.6025 17.8853C20.7909 16.1632 21.4864 14.0767 21.4864 11.8269C21.4864 8.95267 20.3509 6.34305 18.5033 4.42439H23.0316V1.14648H23.0301ZM17.2983 15.383C16.7631 16.3567 16.0177 17.1973 15.1196 17.8414C13.904 18.7153 12.4132 19.2309 10.803 19.2309C9.19274 19.2309 7.60519 18.6821 6.36842 17.7568C5.48544 17.0945 4.75518 16.2403 4.2396 15.256C3.70286 14.2309 3.40046 13.0652 3.40046 11.8284C3.40046 7.74009 6.71466 4.4259 10.803 4.4259C14.8913 4.4259 18.2055 7.74009 18.2055 11.8284C18.2055 13.1166 17.8759 14.3292 17.2983 15.383Z" fill="#D02AA6"/>
<path d="M21.3608 23.7705C21.3608 29.1122 17.4403 33.5377 12.3193 34.3254V38.7312H9.04144V34.3254C3.92048 33.5377 0 29.1122 0 23.7705H3.2779C3.2779 27.2949 5.74238 30.2462 9.04296 30.9916V26.8262H12.3209V30.9916C15.6214 30.2462 18.0859 27.2964 18.0859 23.7705H21.3638H21.3608Z" fill="#D02AA6"/>
<path d="M38.9342 10.5487C40.416 11.4453 41.5681 12.6881 42.386 14.2741C43.2055 15.8602 43.6153 17.6684 43.6153 19.696C43.6153 20.1118 43.4852 20.4444 43.2252 20.6908C42.9651 20.9388 42.6264 21.0613 42.2106 21.0613H26.4501C26.6572 23.1946 27.4903 24.9228 28.9463 26.2503C30.4023 27.5762 32.2227 28.24 34.4075 28.24C35.3434 28.24 36.2853 28.0782 37.2363 27.7516C38.1858 27.4266 38.9464 27.0168 39.5179 26.5224C39.855 26.2624 40.2073 26.1323 40.5717 26.1323C40.8575 26.1323 41.1432 26.2367 41.4305 26.4438C41.7676 26.7553 41.937 27.1075 41.937 27.4976C41.937 27.8363 41.7933 28.1357 41.5076 28.3942C40.6488 29.123 39.5572 29.7277 38.2312 30.2085C36.9052 30.6893 35.6306 30.9297 34.4075 30.9297C32.327 30.9297 30.4673 30.4686 28.8284 29.5448C27.1894 28.6225 25.9088 27.3343 24.9865 25.6833C24.0627 24.0322 23.6016 22.1665 23.6016 20.0845C23.6016 18.0026 24.037 16.099 24.9079 14.448C25.7788 12.797 26.9883 11.5088 28.5366 10.5865C30.0833 9.66419 31.8462 9.20154 33.8224 9.20154C35.7985 9.20154 37.451 9.65059 38.9327 10.5472L38.9342 10.5487ZM28.9085 13.7283C27.6082 14.9515 26.8145 16.5632 26.5287 18.565H40.806C40.5974 16.5632 39.8701 14.95 38.6213 13.7283C37.3724 12.5067 35.7743 11.8943 33.8224 11.8943C31.8704 11.8943 30.2073 12.5051 28.907 13.7283H28.9085Z" fill="#D02AA6"/>
<path d="M61.812 10.334C63.2816 11.1142 64.4322 12.2527 65.2638 13.748C66.0953 15.2433 66.5126 17.0319 66.5126 19.1124V29.2545C66.5126 29.6703 66.369 30.0226 66.0832 30.3083C65.7975 30.5956 65.4452 30.7377 65.0294 30.7377C64.5864 30.7377 64.2235 30.5956 63.9378 30.3083C63.652 30.0226 63.5084 29.6718 63.5084 29.2545V19.1124C63.5084 16.7976 62.8643 15.0362 61.5776 13.8266C60.291 12.617 58.6066 12.0123 56.5262 12.0123C55.2516 12.0123 54.1011 12.2602 53.0744 12.7531C52.0463 13.2475 51.2344 13.9294 50.6357 14.8018C50.0369 15.6727 49.7391 16.6419 49.7391 17.7078V29.2545C49.7391 29.6975 49.603 30.0543 49.3293 30.328C49.0557 30.6017 48.6989 30.7377 48.2559 30.7377C47.8129 30.7377 47.45 30.6017 47.1643 30.328C46.8785 30.0543 46.7349 29.6975 46.7349 29.2545V10.9191C46.7349 10.4776 46.877 10.1133 47.1643 9.8275C47.4515 9.54174 47.8144 9.39811 48.2559 9.39811C48.6974 9.39811 49.0557 9.54174 49.3293 9.8275C49.603 10.1133 49.7391 10.4776 49.7391 10.9191V12.2451C50.5979 11.2835 51.6366 10.529 52.8597 9.98323C54.0814 9.43742 55.4089 9.16376 56.8392 9.16376C58.6853 9.16376 60.3439 9.55384 61.8135 10.334H61.812Z" fill="#D02AA6"/>
<path d="M91.7529 10.8796V20.0465C91.7529 22.0756 91.2782 23.9217 90.3287 25.5863C89.3792 27.251 88.0789 28.5573 86.4278 29.5068C84.7753 30.4563 82.9367 30.931 80.9077 30.931C78.8787 30.931 77.0386 30.4563 75.3876 29.5068C73.735 28.5573 72.4363 27.251 71.4868 25.5863C70.5373 23.9217 70.0625 22.0756 70.0625 20.0465C70.0625 18.0175 70.5236 16.179 71.4475 14.5264C72.3697 12.8754 73.6322 11.5751 75.2319 10.6256C76.8315 9.67612 78.6186 9.20137 80.5963 9.20137C82.2866 9.20137 83.8348 9.5597 85.2379 10.2748C86.6425 10.99 87.7992 11.9713 88.7094 13.2201V1.78982C88.7094 1.34833 88.8515 0.983949 89.1388 0.698191C89.4245 0.412434 89.7889 0.268799 90.2304 0.268799C90.6719 0.268799 91.0302 0.412434 91.3039 0.698191C91.5775 0.983949 91.7136 1.34833 91.7136 1.78982V10.5289C91.7393 10.6075 91.7529 10.7239 91.7529 10.8796ZM84.9265 27.127C86.1224 26.4118 87.0659 25.4366 87.7553 24.2014C88.4448 22.9661 88.7895 21.5812 88.7895 20.0465C88.7895 19.6051 88.7759 19.28 88.7502 19.0713C88.7245 19.0199 88.7109 18.9549 88.7109 18.8763C88.4508 16.8473 87.5996 15.1841 86.1557 13.8823C84.7118 12.5821 82.9624 11.9319 80.9092 11.9319C79.4275 11.9319 78.0804 12.2827 76.8723 12.9858C75.6628 13.6873 74.7133 14.6565 74.0253 15.8917C73.3359 17.127 72.9911 18.5119 72.9911 20.0465C72.9911 21.5812 73.3359 22.9661 74.0253 24.2014C74.7148 25.4366 75.6643 26.4118 76.8723 27.127C78.0819 27.8421 79.4275 28.2005 80.9092 28.2005C82.3909 28.2005 83.7305 27.8436 84.928 27.127H84.9265Z" fill="#D02AA6"/>
<path d="M109.045 9.59216C109.681 9.87792 110 10.2816 110 10.8017C110 10.9574 109.987 11.0754 109.961 11.1525C109.857 11.5169 109.693 11.7633 109.472 11.8933C109.252 12.0234 108.946 12.0884 108.556 12.0884C108.322 12.0884 107.918 12.0627 107.347 12.0098C107.138 11.9841 106.827 11.9705 106.411 11.9705C104.46 11.9705 102.867 12.4906 101.632 13.5308C100.396 14.571 99.7779 15.9242 99.7779 17.5873V29.252C99.7779 29.7207 99.6478 30.0851 99.3878 30.3436C99.1277 30.6022 98.7634 30.7337 98.2962 30.7337C97.829 30.7337 97.4631 30.6037 97.2045 30.3436C96.9445 30.0836 96.8145 29.7192 96.8145 29.252V10.8773C96.8145 10.4086 96.9445 10.0457 97.2045 9.78569C97.4646 9.52563 97.829 9.39561 98.2962 9.39561C98.7634 9.39561 99.1277 9.52563 99.3878 9.78569C99.6478 10.0457 99.7779 10.4101 99.7779 10.8773V12.5934C100.532 11.5017 101.494 10.6566 102.664 10.0578C103.834 9.45911 105.095 9.16125 106.449 9.16125C107.54 9.16125 108.405 9.30489 109.043 9.59065L109.045 9.59216Z" fill="#D02AA6"/>
</svg>
