<svg width="96" height="78" viewBox="0 0 96 78" fill="none" xmlns="http://www.w3.org/2000/svg">
<path d="M5.53027 11C5.53027 7.68629 8.21657 5 11.5303 5H73.1262V72.5959H11.5303C8.21656 72.5959 5.53027 69.9096 5.53027 66.5959V11Z" fill="#FF7BD7"/>
<path d="M42.7117 48.9383H79.8895M42.7117 35.4191H56.2309M42.7117 21.8999H56.2309M24.1228 69.2171C26.3638 69.2171 28.5129 68.3269 30.0975 66.7423C31.6821 65.1577 32.5723 63.0085 32.5723 60.7676V8.38074H90.0288V60.7676C90.0288 63.0085 89.1386 65.1577 87.554 66.7423C85.9695 68.3269 83.8203 69.2171 81.5794 69.2171H24.1228ZM24.1228 69.2171C21.8819 69.2171 19.7327 68.3269 18.1481 66.7423C16.5636 65.1577 15.6733 63.0085 15.6733 60.7676V21.8999H32.6568M66.3703 21.8999H76.5097V35.4191H66.3703V21.8999Z" stroke="#D02AA6" stroke-width="5"/>
</svg>
