<svg width="64" height="64" viewBox="0 0 64 64" fill="none" xmlns="http://www.w3.org/2000/svg">
<path d="M39.1567 4.10667C40.3527 4.48 44.1927 6.00267 49.7394 11.412C54.966 16.5093 56.6553 20.1293 57.1513 21.5053C57.262 24.4933 57.3327 27.9733 57.3327 32C57.3327 42.7533 56.8327 49.6053 56.3767 53.6187C56.0434 56.5547 53.8394 58.7493 50.906 59.092C47.1527 59.5307 41.022 60 31.9993 60C22.9767 60 16.846 59.5307 13.0927 59.0933C10.1593 58.7493 7.95535 56.5547 7.62202 53.6187C7.16602 49.6053 6.66602 42.752 6.66602 32C6.66602 21.248 7.16602 14.3947 7.62202 10.3813C7.95535 7.44533 10.1593 5.25067 13.0927 4.908C16.846 4.47067 22.9767 4 31.9993 4C34.626 4 37.0073 4.04 39.1567 4.10667Z" fill="#E8208E"/>
<path d="M3.33301 38.6668C4.83034 37.4975 7.13434 35.4162 8.62101 33.8055C9.60767 32.7348 9.60767 31.2655 8.62101 30.1948C7.13301 28.5828 4.82901 26.5015 3.33301 25.3335" stroke="#BE1C7B" stroke-width="4.5" stroke-linecap="round" stroke-linejoin="round"/>
<path d="M60.6663 38.6668C59.169 37.4975 56.865 35.4162 55.3796 33.8055C54.393 32.7348 54.393 31.2655 55.3796 30.1948C56.865 28.5828 59.169 26.5015 60.6663 25.3335" stroke="#BE1C7B" stroke-width="4.5" stroke-linecap="round" stroke-linejoin="round"/>
<path d="M20 45.3335H44" stroke="#BE1C7B" stroke-width="4.5" stroke-linecap="round" stroke-linejoin="round"/>
<path d="M20 32H44" stroke="#BE1C7B" stroke-width="4.5" stroke-linecap="round" stroke-linejoin="round"/>
<path d="M20 18.6667H32" stroke="#BE1C7B" stroke-width="4.5" stroke-linecap="round" stroke-linejoin="round"/>
<path d="M57.0581 44.6667C56.8728 48.5574 56.6181 51.4881 56.3768 53.6187C56.0435 56.5547 53.8395 58.7494 50.9061 59.0921C47.1515 59.5307 41.0221 60.0001 31.9995 60.0001C22.9768 60.0001 16.8461 59.5307 13.0928 59.0934C10.1595 58.7494 7.95545 56.5547 7.62212 53.6187C7.37945 51.4881 7.12479 48.5574 6.93945 44.6667" stroke="#BE1C7B" stroke-width="4.5" stroke-linecap="round" stroke-linejoin="round"/>
<path d="M56.3774 19.7907C55.3987 17.9374 53.4707 15.0507 49.7387 11.4121C44.1921 6.00273 40.3521 4.47873 39.1574 4.10673C36.7723 4.03387 34.3863 3.99831 32.0001 4.00006C22.9774 4.00006 16.8467 4.47073 13.0934 4.90806C10.1601 5.25073 7.95474 7.44539 7.62141 10.3814C7.38007 12.5121 7.12541 15.4427 6.94141 19.3334" stroke="#BE1C7B" stroke-width="4.5" stroke-linecap="round" stroke-linejoin="round"/>
</svg>
