<svg width="24" height="24" viewBox="0 0 24 24" fill="none" xmlns="http://www.w3.org/2000/svg">
<path d="M2 6.57143C2 5.10651 2 4.37405 2.25031 3.80033C2.55297 3.10663 3.10663 2.55297 3.80033 2.25031C4.37405 2 5.10651 2 6.57143 2C8.03635 2 8.76881 2 9.34253 2.25031C10.0362 2.55297 10.5899 3.10663 10.8925 3.80033C11.1429 4.37405 11.1429 5.10651 11.1429 6.57143C11.1429 8.03635 11.1429 8.76881 10.8925 9.34253C10.5899 10.0362 10.0362 10.5899 9.34253 10.8925C8.76881 11.1429 8.03635 11.1429 6.57143 11.1429C5.10651 11.1429 4.37405 11.1429 3.80033 10.8925C3.10663 10.5899 2.55297 10.0362 2.25031 9.34253C2 8.76881 2 8.03635 2 6.57143Z" fill="#FF84E0" stroke="#D02AA6" stroke-width="2.1"/>
<path d="M2 17.4286C2 15.9637 2 15.2312 2.25031 14.6575C2.55297 13.9638 3.10663 13.4101 3.80033 13.1075C4.37405 12.8572 5.10651 12.8572 6.57143 12.8572C8.03635 12.8572 8.76881 12.8572 9.34253 13.1075C10.0362 13.4101 10.5899 13.9638 10.8925 14.6575C11.1429 15.2312 11.1429 15.9637 11.1429 17.4286C11.1429 18.8935 11.1429 19.626 10.8925 20.1997C10.5899 20.8934 10.0362 21.4471 9.34253 21.7497C8.76881 22 8.03635 22 6.57143 22C5.10651 22 4.37405 22 3.80033 21.7497C3.10663 21.4471 2.55297 20.8934 2.25031 20.1997C2 19.626 2 18.8935 2 17.4286Z" stroke="#D02AA6" stroke-width="2.1"/>
<path d="M12.8574 6.57143C12.8574 5.10651 12.8574 4.37405 13.1077 3.80033C13.4104 3.10663 13.9641 2.55297 14.6577 2.25031C15.2315 2 15.9639 2 17.4289 2C18.8938 2 19.6262 2 20.2 2.25031C20.8936 2.55297 21.4473 3.10663 21.75 3.80033C22.0003 4.37405 22.0003 5.10651 22.0003 6.57143C22.0003 8.03635 22.0003 8.76881 21.75 9.34253C21.4473 10.0362 20.8936 10.5899 20.2 10.8925C19.6262 11.1429 18.8938 11.1429 17.4289 11.1429C15.9639 11.1429 15.2315 11.1429 14.6577 10.8925C13.9641 10.5899 13.4104 10.0362 13.1077 9.34253C12.8574 8.76881 12.8574 8.03635 12.8574 6.57143Z" stroke="#D02AA6" stroke-width="2.1"/>
<path d="M12.8574 17.4286C12.8574 15.9637 12.8574 15.2312 13.1077 14.6575C13.4104 13.9638 13.9641 13.4101 14.6577 13.1075C15.2315 12.8572 15.9639 12.8572 17.4289 12.8572C18.8938 12.8572 19.6262 12.8572 20.2 13.1075C20.8936 13.4101 21.4473 13.9638 21.75 14.6575C22.0003 15.2312 22.0003 15.9637 22.0003 17.4286C22.0003 18.8935 22.0003 19.626 21.75 20.1997C21.4473 20.8934 20.8936 21.4471 20.2 21.7497C19.6262 22 18.8938 22 17.4289 22C15.9639 22 15.2315 22 14.6577 21.7497C13.9641 21.4471 13.4104 20.8934 13.1077 20.1997C12.8574 19.626 12.8574 18.8935 12.8574 17.4286Z" fill="#FF84E0" stroke="#D02AA6" stroke-width="2.1"/>
</svg>
