<svg width="89" height="79" viewBox="0 0 89 79" fill="none" xmlns="http://www.w3.org/2000/svg">
<path d="M5.19458 24.8049C5.19458 15.9684 12.358 8.80493 21.1946 8.80493H69.8774V55.4877C69.8774 65.4289 61.8185 73.4877 51.8774 73.4877H9.19458C6.98544 73.4877 5.19458 71.6969 5.19458 69.4877V24.8049Z" fill="#FF7BD7"/>
<path fill-rule="evenodd" clip-rule="evenodd" d="M66.0725 28.847C68.2851 29.5091 69.8774 29.7317 69.8774 29.7317V24.0244H73.6823C76.2051 24.0244 78.6245 23.0222 80.4084 21.2383C82.1923 19.4544 83.1945 17.035 83.1945 14.5122C83.1945 11.9894 82.1923 9.56993 80.4084 7.78605C78.6245 6.00217 76.2051 5 73.6823 5H62.7167C60.0748 5 57.5411 6.04948 55.673 7.91755C53.805 9.78563 52.7555 12.3193 52.7555 14.9612C52.7555 23.5564 61.0273 27.3384 66.0725 28.847ZM79.3896 14.5122C79.3896 16.0258 78.7883 17.4775 77.718 18.5479C76.6476 19.6182 75.196 20.2195 73.6823 20.2195H66.0725V24.8519C65.0288 24.4975 64.01 24.0736 63.0229 23.583C59.2504 21.692 56.5604 19.0019 56.5604 14.9612C56.5604 13.3284 57.209 11.7625 58.3635 10.608C59.518 9.45348 61.0839 8.80487 62.7167 8.80487H73.6823C75.196 8.80487 76.6476 9.40617 77.718 10.4765C78.7883 11.5468 79.3896 12.9985 79.3896 14.5122ZM31.4806 27.8159C28.9875 27.7296 26.6281 26.6669 24.9113 24.8571C23.1944 23.0473 22.2576 20.6352 22.3028 18.141C22.348 15.6468 23.3715 13.2703 25.1528 11.5238C26.934 9.77736 29.3303 8.80086 31.8249 8.80487H37.8537C40.2922 8.80487 42.6309 9.77357 44.3552 11.4979C46.0795 13.2222 47.0482 15.5608 47.0482 17.9993C47.0482 25.689 40.1423 29.2047 35.6336 30.6829C33.4496 31.3982 31.8287 31.6341 31.8287 31.6341V27.8292L31.4806 27.8159ZM35.6336 24.1594L31.6194 24.0148C30.111 23.9821 28.6769 23.3529 27.6314 22.2651C26.5858 21.1773 26.0138 19.7195 26.0408 18.2109C26.0677 16.7023 26.6913 15.2659 27.775 14.2161C28.8588 13.1663 30.3143 12.5887 31.823 12.6097H37.8518C38.5598 12.6095 39.2608 12.7487 39.9149 13.0195C40.569 13.2902 41.1634 13.6872 41.6641 14.1876C42.1647 14.6881 42.5619 15.2824 42.8329 15.9364C43.1039 16.5904 43.2433 17.2914 43.2433 17.9993C43.2433 21.6425 40.9281 24.0301 37.6806 25.7232C36.9957 26.0809 36.3013 26.3853 35.6336 26.644V24.1594ZM56.5604 39.2438C56.5604 43.4482 53.155 46.8536 48.9506 46.8536C44.7462 46.8536 41.3409 43.4482 41.3409 39.2438C41.3409 35.0395 44.7462 31.6341 48.9506 31.6341C53.155 31.6341 56.5604 35.0395 56.5604 39.2438ZM52.7555 39.2438C52.7555 40.253 52.3546 41.2207 51.6411 41.9343C50.9275 42.6478 49.9597 43.0487 48.9506 43.0487C47.9415 43.0487 46.9737 42.6478 46.2602 41.9343C45.5466 41.2207 45.1458 40.253 45.1458 39.2438C45.1458 38.2347 45.5466 37.2669 46.2602 36.5534C46.9737 35.8398 47.9415 35.439 48.9506 35.439C49.9597 35.439 50.9275 35.8398 51.6411 36.5534C52.3546 37.2669 52.7555 38.2347 52.7555 39.2438ZM39.4384 43.0487C39.4384 47.2531 36.0331 50.6585 31.8287 50.6585C27.6243 50.6585 24.219 47.2531 24.219 43.0487C24.219 38.8443 27.6243 35.439 31.8287 35.439C36.0331 35.439 39.4384 38.8443 39.4384 43.0487ZM35.6336 43.0487C35.6336 44.0578 35.2327 45.0256 34.5192 45.7392C33.8056 46.4527 32.8378 46.8536 31.8287 46.8536C30.8196 46.8536 29.8518 46.4527 29.1383 45.7392C28.4247 45.0256 28.0238 44.0578 28.0238 43.0487C28.0238 42.0396 28.4247 41.0718 29.1383 40.3583C29.8518 39.6447 30.8196 39.2438 31.8287 39.2438C32.8378 39.2438 33.8056 39.6447 34.5192 40.3583C35.2327 41.0718 35.6336 42.0396 35.6336 43.0487ZM14.7068 63.1118C14.7068 57.3588 26.1138 54.4633 31.8287 54.4633C32.9416 54.4633 34.2714 54.5737 35.6907 54.7924C38.2418 52.9224 42.9142 50.6585 48.9506 50.6585C54.9852 50.6585 59.6594 52.9224 62.2125 54.7924C63.4892 54.5866 64.7795 54.4766 66.0725 54.4633C71.7875 54.4633 83.1945 57.3607 83.1945 63.1099V73.4877H14.7068V63.1118ZM44.4837 62.1168C45.1458 62.7332 45.1458 63.0547 45.1458 63.1099V69.6828H18.5117V63.1099C18.5117 63.0528 18.5117 62.7332 19.1737 62.1168C19.8643 61.4719 21.0038 60.7851 22.5524 60.1573C25.6572 58.9017 29.4507 58.2682 31.8287 58.2682C34.2068 58.2682 38.0002 58.9017 41.105 60.1573C42.6536 60.7851 43.7931 61.4719 44.4837 62.1168ZM56.8305 56.0918C54.3436 55.0135 51.6612 54.4591 48.9506 54.4633C45.8002 54.4633 43.1216 55.1977 41.0726 56.0918C45.2865 57.5072 48.9506 59.851 48.9506 63.1118C48.9506 59.851 52.6147 57.5091 56.8305 56.0918ZM79.3896 63.1118C79.3896 63.0547 79.3896 62.7332 78.7275 62.1168C78.037 61.4719 76.8974 60.7851 75.3488 60.1573C72.244 58.9017 68.4506 58.2682 66.0725 58.2682C63.6945 58.2682 59.901 58.9017 56.7963 60.1573C55.2477 60.7851 54.1081 61.4719 53.4175 62.1168C52.7555 62.7332 52.7555 63.0547 52.7555 63.1099V69.6828H79.3896V63.1118ZM66.0725 50.6585C70.2769 50.6585 73.6823 47.2531 73.6823 43.0487C73.6823 38.8443 70.2769 35.439 66.0725 35.439C61.8682 35.439 58.4628 38.8443 58.4628 43.0487C58.4628 47.2531 61.8682 50.6585 66.0725 50.6585ZM66.0725 46.8536C67.0817 46.8536 68.0494 46.4527 68.763 45.7392C69.4766 45.0256 69.8774 44.0578 69.8774 43.0487C69.8774 42.0396 69.4766 41.0718 68.763 40.3583C68.0494 39.6447 67.0817 39.2438 66.0725 39.2438C65.0634 39.2438 64.0956 39.6447 63.3821 40.3583C62.6685 41.0718 62.2677 42.0396 62.2677 43.0487C62.2677 44.0578 62.6685 45.0256 63.3821 45.7392C64.0956 46.4527 65.0634 46.8536 66.0725 46.8536Z" fill="#D02AA6"/>
</svg>
