<svg width="64" height="64" viewBox="0 0 64 64" fill="none" xmlns="http://www.w3.org/2000/svg">
<path d="M10.0533 4.58533C7.132 4.79733 4.86667 6.852 4.544 9.764C4.256 12.3467 4 16.112 4 21.3333C4 26.5547 4.256 30.32 4.544 32.9027C4.868 35.8133 7.13067 37.8707 10.0533 38.0813C10.7813 38.1347 11.6093 38.188 12.5467 38.2413C12.9587 36.264 13.4213 34.5747 13.844 33.2267C14.6547 30.6333 16.3427 28.3693 18.656 26.9093C18.2203 25.5373 17.999 24.1062 18 22.6667C18 14.9347 24.268 8.66667 32 8.66667C39.732 8.66667 46 14.9347 46 22.6667C46.0013 24.1057 45.7804 25.5363 45.3453 26.908C47.6587 28.3693 49.3453 30.6333 50.1573 33.2253C50.5787 34.5733 51.0413 36.264 51.4547 38.24C52.392 38.188 53.2187 38.1347 53.948 38.0813C56.868 37.8693 59.132 35.8147 59.456 32.9027C59.744 30.32 60 26.5547 60 21.3333C60 16.112 59.744 12.3467 59.456 9.764C59.132 6.85333 56.8693 4.79733 53.9467 4.58533C50.0293 4.3 43.232 4 32 4C20.768 4 13.9707 4.3 10.0533 4.58533Z" fill="#E8208E"/>
<path d="M32 30.6667C28.316 30.6667 25.6213 30.9494 23.7867 31.2547C21.752 31.5934 20.1867 33.0494 19.5707 35.0174C18.7733 37.5587 20.7907 40.0001 23.4533 40.0001H40.5467C43.2093 40.0001 45.2253 37.5587 44.4307 35.0174C43.8147 33.0494 42.2493 31.5934 40.216 31.2547C38.38 30.9494 35.6853 30.6667 32 30.6667Z" fill="#E8208E"/>
<path d="M15.5423 61.3333C15.5423 61.3333 14.4943 57.5826 13.333 53.3333H50.6663C49.505 57.5826 48.457 61.3333 48.457 61.3333H15.5423Z" fill="#E8208E"/>
<path d="M40 22.6667C40 24.7885 39.1571 26.8233 37.6569 28.3236C36.1566 29.8239 34.1217 30.6667 32 30.6667C29.8783 30.6667 27.8434 29.8239 26.3431 28.3236C24.8429 26.8233 24 24.7885 24 22.6667C24 20.545 24.8429 18.5102 26.3431 17.0099C27.8434 15.5096 29.8783 14.6667 32 14.6667C34.1217 14.6667 36.1566 15.5096 37.6569 17.0099C39.1571 18.5102 40 20.545 40 22.6667Z" fill="#E8208E"/>
<path d="M11.5197 45.4879C10.497 45.5066 9.60634 46.1346 9.46767 47.1479C9.39167 47.7146 9.33301 48.4373 9.33301 49.3333C9.33301 50.2293 9.39167 50.9533 9.46767 51.5199C9.60634 52.5333 10.497 53.1599 11.5183 53.1786C14.413 53.2346 21.1103 53.3333 31.9997 53.3333C42.889 53.3333 49.5877 53.2346 52.4797 53.1786C53.5023 53.1599 54.393 52.5319 54.5303 51.5186C54.6077 50.9519 54.6663 50.2293 54.6663 49.3333C54.6663 48.4373 54.6077 47.7133 54.5303 47.1466C54.393 46.1333 53.5037 45.5066 52.481 45.4879C49.5863 45.4319 42.889 45.3333 31.9997 45.3333C21.1103 45.3333 14.4117 45.4319 11.5197 45.4879Z" fill="#E8208E"/>
<path d="M53.3333 38.1253L53.9453 38.0827C56.8653 37.8693 59.132 35.8133 59.456 32.9027C59.744 30.32 60 26.5547 60 21.3333C60 16.112 59.744 12.3467 59.456 9.764C59.132 6.85333 56.8693 4.79733 53.9467 4.58533C50.0293 4.3 43.232 4 32 4C20.768 4 13.9707 4.3 10.0533 4.58533C7.132 4.79733 4.86667 6.852 4.544 9.764C4.256 12.3467 4 16.112 4 21.3333C4 26.5547 4.256 30.32 4.544 32.9027C4.868 35.8133 7.13467 37.8707 10.0547 38.0827L10.6667 38.1253" stroke="#BE1C7B" stroke-width="4.2" stroke-linecap="round" stroke-linejoin="round"/>
<path d="M40 22.6667C40 24.7885 39.1571 26.8233 37.6569 28.3236C36.1566 29.8239 34.1217 30.6667 32 30.6667C29.8783 30.6667 27.8434 29.8239 26.3431 28.3236C24.8429 26.8233 24 24.7885 24 22.6667C24 20.545 24.8429 18.5102 26.3431 17.0099C27.8434 15.5096 29.8783 14.6667 32 14.6667C34.1217 14.6667 36.1566 15.5096 37.6569 17.0099C39.1571 18.5102 40 20.545 40 22.6667Z" stroke="#BE1C7B" stroke-width="4.2" stroke-linecap="round" stroke-linejoin="round"/>
<path d="M15.9082 59.9999C15.9082 59.9999 15.1482 57.3626 14.2148 53.3333" stroke="#BE1C7B" stroke-width="4.2" stroke-linecap="round" stroke-linejoin="round"/>
<path d="M48.0918 59.9999C48.0918 59.9999 48.8518 57.3626 49.7851 53.3333" stroke="#BE1C7B" stroke-width="4.2" stroke-linecap="round" stroke-linejoin="round"/>
<path d="M11.5197 45.4879C10.497 45.5066 9.60634 46.1346 9.46767 47.1479C9.39167 47.7146 9.33301 48.4373 9.33301 49.3333C9.33301 50.2293 9.39167 50.9533 9.46767 51.5199C9.60634 52.5333 10.497 53.1599 11.5183 53.1786C14.413 53.2346 21.1103 53.3333 31.9997 53.3333C42.889 53.3333 49.5877 53.2346 52.4797 53.1786C53.5023 53.1599 54.393 52.5319 54.5303 51.5186C54.6077 50.9519 54.6663 50.2293 54.6663 49.3333C54.6663 48.4373 54.6077 47.7133 54.5303 47.1466C54.393 46.1333 53.5037 45.5066 52.481 45.4879C49.5863 45.4319 42.889 45.3333 31.9997 45.3333C21.1103 45.3333 14.4117 45.4319 11.5197 45.4879Z" stroke="#BE1C7B" stroke-width="4.2" stroke-linecap="round" stroke-linejoin="round"/>
<path d="M32 38.6667V45.3334" stroke="#BE1C7B" stroke-width="4.2" stroke-linecap="round" stroke-linejoin="round"/>
<path d="M45.3336 38.3441C45.0736 37.2239 44.772 36.1138 44.4296 35.0161C43.815 33.0494 42.2483 31.5934 40.2163 31.2561C38.379 30.9481 35.6843 30.6667 32.0003 30.6667C28.3163 30.6667 25.6203 30.9494 23.7857 31.2547C21.751 31.5934 20.1857 33.0494 19.5697 35.0174C19.2817 35.9401 18.967 37.0574 18.667 38.3441" stroke="#BE1C7B" stroke-width="4.2" stroke-linecap="round" stroke-linejoin="round"/>
</svg>
