<svg width="24" height="24" viewBox="0 0 24 24" fill="none" xmlns="http://www.w3.org/2000/svg">
<path d="M5.49949 6C4.32518 6.41658 3.79983 6.89487 2.99949 8C1.95779 11.4824 2.60615 13.0614 4.99949 15.5C4.99949 15.5 6.99995 16.5 6.99949 16C6.99903 15.5 7.49949 15 7.49949 15C7.99949 14.8333 9.09949 14.6 9.49949 15C9.99949 15.5 13.4995 14 14.4995 13C15.4995 12 15.4995 9 14.9995 7.5C14.5995 6.3 12.1662 5.66667 10.9995 5.5H7.99949L5.49949 6Z" fill="#FF84E0"/>
<path fill-rule="evenodd" clip-rule="evenodd" d="M11.5365 15.0375C11.3469 15.0588 11.1563 15.0695 10.9655 15.0695H8V17.5C8 17.5 7.597 17.4185 7 17.1885C5.293 16.532 2 14.665 2 10.035C2 7.255 4.254 5 7.035 5H10.965C13.391 5 15.4165 6.716 15.8935 9H17.9725C19.0407 9.00013 20.0651 9.42457 20.8204 10.1799C21.5757 10.9353 22 11.9598 22 13.028C22 16.6675 19.086 18.173 17.5 18.7225C16.9075 18.928 16.5 19 16.5 19V17.0555H15.028C14.3199 17.0561 13.6242 16.8698 13.0112 16.5155C12.3981 16.1612 11.8894 15.6513 11.5365 15.0375ZM7 14.0695V16.107C6.50178 15.8885 6.02785 15.6184 5.586 15.301C4.291 14.3645 3 12.777 3 10.0345C3.00013 8.96444 3.42531 7.93825 4.182 7.18165C4.93869 6.42505 5.96494 6 7.035 6H10.965C11.9942 6.00002 12.9845 6.39331 13.7333 7.09942C14.482 7.80553 14.9327 8.77107 14.993 9.7985C14.9573 10.4907 14.7788 11.168 14.4687 11.7879C14.1585 12.4078 13.7235 12.9568 13.191 13.4005C12.5313 13.8379 11.757 14.0707 10.9655 14.0695H7ZM13.7875 14.2045C13.4433 14.4865 13.069 14.7296 12.6715 14.9295C12.9551 15.2814 13.3141 15.5652 13.7219 15.7601C14.1297 15.955 14.576 16.0559 15.028 16.0555H17.5V17.656C17.9235 17.4898 18.3307 17.2847 18.7165 17.0435C19.9 16.296 21 15.082 21 13.028C21 12.225 20.681 11.4549 20.1133 10.8871C19.5455 10.3192 18.7755 10.0001 17.9725 10H16V10.035C16 11.7695 15.1225 13.299 13.7875 14.2045Z" fill="#D02AA6" stroke="#D02AA6"/>
</svg>
