<svg width="106" height="93" viewBox="0 0 106 93" fill="none" xmlns="http://www.w3.org/2000/svg">
<circle cx="44.3631" cy="44.2391" r="39.2391" fill="#FF7BD7"/>
<path d="M58.8195 5C81.6319 5 100.124 23.4919 100.124 46.3043C100.124 69.1167 81.6319 87.6087 58.8195 87.6087C52.2273 87.6178 45.7294 86.0425 39.8732 83.0156L24.0702 87.4228C23.1885 87.6688 22.2572 87.6761 21.3719 87.4437C20.4865 87.2114 19.6788 86.7479 19.0315 86.1006C18.3842 85.4533 17.9207 84.6456 17.6883 83.7602C17.456 82.8748 17.4632 81.9436 17.7093 81.0619L22.1206 65.2713C19.0862 59.4099 17.5066 52.9045 17.5152 46.3043C17.5152 23.4919 36.0071 5 58.8195 5ZM58.8195 11.1956C49.5081 11.1956 40.5781 14.8946 33.9939 21.4787C27.4098 28.0629 23.7108 36.9929 23.7108 46.3043C23.7108 52.3761 25.2515 58.2124 28.1428 63.3919L28.7623 64.5071L24.1693 80.9628L40.6373 76.3698L41.7526 76.9893C46.438 79.5944 51.6579 81.0918 57.0118 81.3668C62.3657 81.6418 67.7115 80.6871 72.6393 78.5758C77.567 76.4645 81.9458 73.2528 85.4399 69.187C88.934 65.1211 91.4506 60.309 92.7967 55.1198C94.1428 49.9306 94.2826 44.502 93.2055 39.2503C92.1284 33.9987 89.8629 29.0634 86.5828 24.823C83.3027 20.5827 79.095 17.1498 74.2825 14.7876C69.47 12.4254 64.1805 11.1967 58.8195 11.1956ZM45.3956 50.4348H63.9743C64.7592 50.435 65.5147 50.7332 66.0882 51.269C66.6617 51.8048 67.0105 52.5384 67.064 53.3214C67.1175 54.1045 66.8717 54.8787 66.3764 55.4875C65.8811 56.0964 65.1731 56.4945 64.3956 56.6015L63.9743 56.6304H45.3956C44.6107 56.6302 43.8552 56.332 43.2817 55.7962C42.7082 55.2603 42.3594 54.5268 42.3059 53.7437C42.2524 52.9607 42.4982 52.1865 42.9935 51.5777C43.4888 50.9688 44.1967 50.5707 44.9743 50.4637L45.3956 50.4348ZM45.3956 35.9782H72.2641C73.0486 35.9795 73.8034 36.2784 74.3761 36.8146C74.9489 37.3507 75.2968 38.0842 75.3498 38.867C75.4027 39.6497 75.1567 40.4234 74.6614 41.0318C74.1661 41.6402 73.4584 42.0381 72.6812 42.145L72.2641 42.1739H45.3956C44.6107 42.1737 43.8552 41.8755 43.2817 41.3397C42.7082 40.8038 42.3594 40.0703 42.3059 39.2872C42.2524 38.5042 42.4982 37.73 42.9935 37.1211C43.4888 36.5123 44.1967 36.1141 44.9743 36.0072L45.3956 35.9782Z" fill="#D02AA6"/>
</svg>
