<svg width="24" height="24" viewBox="0 0 24 24" fill="none" xmlns="http://www.w3.org/2000/svg">
<g clip-path="url(#clip0_330_683)">
<path d="M16.286 21.4286C16.286 21.8833 16.1054 22.3193 15.7839 22.6408C15.4624 22.9623 15.0264 23.1429 14.5717 23.1429H2.57171C2.11705 23.1429 1.68102 22.9623 1.35952 22.6408C1.03803 22.3193 0.857422 21.8833 0.857422 21.4286V2.57146C0.857422 2.11681 1.03803 1.68077 1.35952 1.35928C1.68102 1.03779 2.11705 0.857178 2.57171 0.857178H14.5717C15.0264 0.857178 15.4624 1.03779 15.7839 1.35928C16.1054 1.68077 16.286 2.11681 16.286 2.57146V21.4286Z" fill="#FF84E0"/>
<path d="M16.286 18V21.4286C16.286 21.8833 16.1054 22.3193 15.7839 22.6408C15.4624 22.9623 15.0264 23.1429 14.5717 23.1429H2.57171C2.11705 23.1429 1.68102 22.9623 1.35952 22.6408C1.03803 22.3193 0.857422 21.8833 0.857422 21.4286V2.57146C0.857422 2.11681 1.03803 1.68077 1.35952 1.35928C1.68102 1.03779 2.11705 0.857178 2.57171 0.857178H14.5717C15.0264 0.857178 15.4624 1.03779 15.7839 1.35928C16.1054 1.68077 16.286 2.11681 16.286 2.57146V6.00003" fill="#FF84E0"/>
<path d="M16.286 18V21.4286C16.286 21.8833 16.1054 22.3193 15.7839 22.6408C15.4624 22.9623 15.0264 23.1429 14.5717 23.1429H2.57171C2.11705 23.1429 1.68102 22.9623 1.35952 22.6408C1.03803 22.3193 0.857422 21.8833 0.857422 21.4286V2.57146C0.857422 2.11681 1.03803 1.68077 1.35952 1.35928C1.68102 1.03779 2.11705 0.857178 2.57171 0.857178H14.5717C15.0264 0.857178 15.4624 1.03779 15.7839 1.35928C16.1054 1.68077 16.286 2.11681 16.286 2.57146V6.00003" stroke="#D02AA6" stroke-width="2" stroke-linecap="round" stroke-linejoin="round"/>
<path d="M11.1436 12H23.1436Z" fill="#FF84E0"/>
<path d="M11.1436 12H23.1436" stroke="#D02AA6" stroke-width="2" stroke-linecap="round" stroke-linejoin="round"/>
<path d="M19.7148 8.57153L23.1434 12.0001L19.7148 15.4287" fill="#FF84E0"/>
<path d="M19.7148 8.57153L23.1434 12.0001L19.7148 15.4287" stroke="#D02AA6" stroke-width="2" stroke-linecap="round" stroke-linejoin="round"/>
</g>
<defs>
<clipPath id="clip0_330_683">
<rect width="24" height="24" fill="white"/>
</clipPath>
</defs>
</svg>
