<svg width="24" height="24" viewBox="0 0 24 24" fill="none" xmlns="http://www.w3.org/2000/svg">
<path fill-rule="evenodd" clip-rule="evenodd" d="M1 11.7505C0.999899 10.4723 1.42565 9.2306 2.20999 8.22143C2.99433 7.21227 4.09255 6.49319 5.33115 6.17781C6.56976 5.86242 7.87814 5.9687 9.0496 6.47987C10.2211 6.99103 11.1888 7.87793 11.8 9.00046H20.75C21.716 9.00046 22.5 9.78446 22.5 10.7505V13.2505C22.5 13.4494 22.421 13.6401 22.2803 13.7808C22.1397 13.9214 21.9489 14.0005 21.75 14.0005H19.5V15.7505C19.5 15.9494 19.421 16.1401 19.2803 16.2808C19.1397 16.4214 18.9489 16.5005 18.75 16.5005H16.25C16.0511 16.5005 15.8603 16.4214 15.7197 16.2808C15.579 16.1401 15.5 15.9494 15.5 15.7505V14.0005H12.043C11.524 15.2203 10.5995 16.2235 9.42596 16.8401C8.2524 17.4567 6.90184 17.649 5.60283 17.3843C4.30382 17.1196 3.13614 16.4143 2.29739 15.3877C1.45863 14.361 1.00032 13.0762 1 11.7505ZM6.75 9.75046C6.21957 9.75046 5.71086 9.96117 5.33579 10.3362C4.96071 10.7113 4.75 11.22 4.75 11.7505C4.75 12.2809 4.96071 12.7896 5.33579 13.1647C5.71086 13.5397 6.21957 13.7505 6.75 13.7505C7.28043 13.7505 7.78914 13.5397 8.16421 13.1647C8.53929 12.7896 8.75 12.2809 8.75 11.7505C8.75 11.22 8.53929 10.7113 8.16421 10.3362C7.78914 9.96117 7.28043 9.75046 6.75 9.75046Z" fill="#222831"/>
</svg>
