<svg width="24" height="24" viewBox="0 0 24 24" fill="none" xmlns="http://www.w3.org/2000/svg">
<path d="M7 10.4999L7.5 8.49991C9 7.49991 10.5 8.49991 11 9.49991C11.5 10.4999 9.5 11.4999 9 11.9999C8.6 12.3999 7.5 11.1666 7 10.4999Z" fill="#FF84E0"/>
<path d="M15 9H18M15 12H18M15 15H18M12 16C11.7 15.4 11 15 10.4 15H7.6C6.9 15 6.3 15.4 6 16M4 5H20C20.6 5 21 5.4 21 6V18C21 18.6 20.6 19 20 19H4C3.73478 19 3.48043 18.8946 3.29289 18.7071C3.10536 18.5196 3 18.2652 3 18V6C3 5.4 3.4 5 4 5ZM11 10C11 10.5304 10.7893 11.0391 10.4142 11.4142C10.0391 11.7893 9.53043 12 9 12C8.46957 12 7.96086 11.7893 7.58579 11.4142C7.21071 11.0391 7 10.5304 7 10C7 9.46957 7.21071 8.96086 7.58579 8.58579C7.96086 8.21071 8.46957 8 9 8C9.53043 8 10.0391 8.21071 10.4142 8.58579C10.7893 8.96086 11 9.46957 11 10Z" stroke="#D02AA6" stroke-width="2" stroke-linecap="round" stroke-linejoin="round"/>
</svg>
