<svg width="31" height="31" viewBox="0 0 31 31" fill="none" xmlns="http://www.w3.org/2000/svg">
<path d="M24.7484 0H14.7924C12.3295 0 10.1059 1.02402 8.52415 2.66947C7.01997 4.23244 6.09558 6.35724 6.09558 8.69762C6.09558 10.468 6.62474 12.1143 7.53443 13.4886C8.04644 14.2644 8.68012 14.9528 9.40771 15.5285C10.889 16.697 12.759 17.3944 14.7924 17.3944C16.8257 17.3944 18.583 16.7387 20.0415 15.6314C20.7813 15.072 21.4281 14.3959 21.9556 13.6307C22.9233 12.2286 23.49 10.5293 23.49 8.69762C23.49 6.35724 22.5656 4.23244 21.0614 2.66947H24.7484V0ZM20.0815 11.5925C19.6463 12.3854 19.0387 13.0697 18.3078 13.5948C17.3181 14.3069 16.1038 14.7258 14.7924 14.7258C13.4809 14.7258 12.1882 14.2791 11.1814 13.5254C10.4619 12.9864 9.86746 12.2907 9.44773 11.4888C9.01085 10.6542 8.76423 9.7053 8.76423 8.69762C8.76423 5.36834 11.4631 2.66947 14.7924 2.66947C18.1217 2.66947 20.8205 5.36834 20.8205 8.69762C20.8205 9.74695 20.5527 10.7334 20.0815 11.5925Z" fill="#D02AA6"/>
<path d="M23.3936 18.4226C23.3936 22.7718 20.2007 26.3755 16.0311 27.0173V30.6055H13.3625V27.0173C9.19291 26.3755 6 22.7718 6 18.4226H8.66865C8.66865 21.293 10.675 23.6954 13.3625 24.3021V20.91H16.0311V24.3021C18.7186 23.6954 20.7249 21.293 20.7249 18.4226H23.3936Z" fill="#D02AA6"/>
</svg>
